<svg xmlns="http://www.w3.org/2000/svg" xmlns:xlink="http://www.w3.org/1999/xlink" id="Calque_1" width="50" height="50" x="0" y="0" enable-background="new 0 0 50 50" version="1.1" viewBox="0 0 50 50" xml:space="preserve"><g><circle cx="25" cy="25" r="15" fill="#BAF42C"/><path fill="none" stroke="#000" stroke-linejoin="round" stroke-miterlimit="10" d="M21.087,26.191 c0-2.149,1.159-3.909,2.577-3.909c1.417,0,2.577,0,2.577,0"/><path fill="none" stroke="#000" stroke-linejoin="round" stroke-miterlimit="10" d="M27.941,22.971c0,0,1.174,0,2.605,0 s2.605,1.309,2.605,2.909v0.606c0,1.6-1.31,2.908-2.909,2.908H24.85c-1.13,0-2.117-0.654-2.597-1.604"/><path fill="none" stroke="#000" stroke-linejoin="round" stroke-miterlimit="10" d="M26.912,24.062 c0,1.6-1.311,2.909-2.909,2.909h-5.394c-1.599,0-2.908-1.309-2.908-2.909v-0.606c0-1.6,1.309-2.909,2.908-2.909h5.394 c1.601,0,2.909,1.309,2.909,2.909V24.062z"/></g></svg>